<svg width="40" height="40" viewBox="0 0 40 40" fill="none" xmlns="http://www.w3.org/2000/svg">
<rect x="39.5" y="39.5" width="39" height="39" transform="rotate(-180 39.5 39.5)" stroke="#76A713"/>
<path fill-rule="evenodd" clip-rule="evenodd" d="M18.5292 20.0055L18.5305 20.3006C18.5406 21.471 18.6112 22.5152 18.7328 23.177C18.7328 23.1889 18.8656 23.8452 18.9501 24.0637C19.0828 24.3795 19.3228 24.6475 19.6238 24.8173C19.8647 24.9385 20.1173 25 20.3819 25C20.5898 24.9904 20.9328 24.8857 21.1776 24.798L21.381 24.72C22.7282 24.1849 25.3037 22.4362 26.29 21.3668L26.3627 21.2921L26.6873 20.9418C26.8918 20.6738 27 20.3461 27 19.9936C27 19.6778 26.9036 19.362 26.7109 19.1068C26.6532 19.0242 26.5603 18.9181 26.4776 18.8285L26.1617 18.4978C25.0746 17.3964 22.721 15.8515 21.501 15.3397C21.501 15.3286 20.7428 15.0119 20.3819 15H20.3337C19.7801 15 19.2628 15.3158 18.9982 15.8262C18.926 15.9657 18.8567 16.239 18.804 16.479L18.7092 16.9323C18.601 17.6611 18.5292 18.7792 18.5292 20.0055ZM13.2528 18.7348C12.5609 18.7348 12 19.3011 12 19.9997C12 20.6982 12.5609 21.2646 13.2528 21.2646L16.3354 20.9919C16.8781 20.9919 17.3181 20.5486 17.3181 19.9997C17.3181 19.4516 16.8781 19.0073 16.3354 19.0073L13.2528 18.7348Z" fill="#76A713"/>
</svg>
