<svg width="40" height="40" viewBox="0 0 40 40" fill="none" xmlns="http://www.w3.org/2000/svg">
<rect width="40" height="40" fill="#76A713"/>
<path fill-rule="evenodd" clip-rule="evenodd" d="M21.4708 19.9945L21.4695 19.6994C21.4594 18.529 21.3888 17.4848 21.2672 16.823C21.2672 16.8111 21.1344 16.1548 21.0499 15.9363C20.9172 15.6205 20.6772 15.3525 20.3762 15.1827C20.1353 15.0615 19.8827 15 19.6181 15C19.4102 15.0096 19.0672 15.1143 18.8224 15.202L18.619 15.28C17.2718 15.8151 14.6963 17.5638 13.71 18.6332L13.6373 18.7079L13.3127 19.0582C13.1082 19.3262 13 19.6539 13 20.0064C13 20.3222 13.0964 20.638 13.2891 20.8932C13.3468 20.9758 13.4397 21.0819 13.5224 21.1715L13.8383 21.5022C14.9254 22.6036 17.279 24.1485 18.499 24.6603C18.499 24.6714 19.2572 24.9881 19.6181 25H19.6663C20.2199 25 20.7372 24.6842 21.0017 24.1738C21.074 24.0343 21.1433 23.761 21.196 23.521L21.2908 23.0677C21.399 22.3389 21.4708 21.2208 21.4708 19.9945ZM26.7472 21.2652C27.4391 21.2652 28 20.6989 28 20.0003C28 19.3018 27.4391 18.7354 26.7472 18.7354L23.6646 19.0081C23.1219 19.0081 22.6819 19.4514 22.6819 20.0003C22.6819 20.5484 23.1219 20.9927 23.6646 20.9927L26.7472 21.2652Z" fill="white"/>
</svg>
